<svg version="1.1" baseProfile="full" width="2810" height="399" viewbox="0 0 2810 399" xmlns="http://www.w3.org/2000/svg" xmlns:xlink="http://www.w3.org/1999/xlink" xmlns:ev="http://www.w3.org/2001/xml-events" style="font-weight:bold; font-size:12pt; font-family:'Calibri', Helvetica, sans-serif;;stroke-width:3;stroke-linejoin:round;stroke-linecap:round">
<title >nomnoml</title>
<desc >#.interface: fill=lightblue
#.enumeration: fill=lightgreen
[FileXmlMetadataLoaderAdapter||+load(): string]
[FileValidatorAdapter||+isValid(): boolean]
[BaseFileValidator]&lt;:-[FileValidatorAdapter]
[InvalidPathOrUrlError||]
[&lt;interface&gt;comparableObject||]
[BaseFileValidator||+isValid(): boolean]
[&lt;interface&gt;IValidator|+isValid: (arg: any) =&gt; boolean|]
[IValidator]&lt;:--[BaseFileValidator]
[IValidator]&lt;:--[FileValidatorAdapter]
[XmlMetadataLoadService|+urlOrPath: string;+loader: IXmlMetadataLoaderRepository|+load(): string]
[FileIdpMetadata||]
[IdpMetadata]&lt;:-[FileIdpMetadata]
[&lt;interface&gt;ProviderProps|+entrypoint: string;+cert: string \| string\[\];+providerName: string;+authnRequestBinding: &quot;HTTP-POST&quot; \| &quot;HTTP-Redirect&quot;|]
[&lt;interface&gt;IXmlMetadataLoadService|+urlOrPath: string;+loader: IXmlMetadataLoaderRepository;+load: () =&gt; string|]
[IXmlMetadataLoadService]&lt;:--[XmlMetadataLoadService]
[IdpMetadata|-urlOrPathValidator: any;-loadService: any|+load(): void]
[&lt;interface&gt;IdpMetadataProps|+source: &quot;file&quot; \| &quot;url&quot;;+urlOrPath: string;+data: ProviderProps \| undefined|]
[ValueObject&lt;T&gt;]&lt;:-[IdpMetadata]
[&lt;interface&gt;IXmlMetadataLoaderRepository|+load: (urlOrPath: string) =&gt; string|]
[IXmlMetadataLoaderRepository]&lt;:--[FileXmlMetadataLoaderAdapter]
[ValueObject&lt;T&gt;|+props: T|+equal(): boolean]
[&lt;interface&gt;ValueObjectProps||]</desc>
<path d="M1228 257.5 L1228 296.5 L1469 335 L1469 335 " style="stroke:#33322E;fill:none;stroke-dasharray:none;"></path>
<path d="M1233.3 270.8 L1228 270.8 L1222.7 270.8 L1228 257.5 Z" style="stroke:#33322E;fill:#eee8d5;stroke-dasharray:none;"></path>
<path d="M1416.6 106 L1228 148.5 L1228 187.5 L1228 187.5 " style="stroke:#33322E;fill:none;stroke-dasharray:6 6;"></path>
<path d="M1404.8 114.1 L1403.6 108.9 L1402.5 103.7 L1416.6 106 Z" style="stroke:#33322E;fill:#eee8d5;stroke-dasharray:none;"></path>
<path d="M1679.8 106 L1810.8 148.5 L1810.8 222.5 L1810.8 222.5 L1810.8 296.5 L1810.8 296.5 L1675 327.8 L1675 327.8 " style="stroke:#33322E;fill:none;stroke-dasharray:6 6;"></path>
<path d="M1694.2 105 L1692.5 110.1 L1690.9 115.2 L1679.8 106 Z" style="stroke:#33322E;fill:#eee8d5;stroke-dasharray:none;"></path>
<path d="M2500.5 276.5 L2500.5 296.5 L2500.5 328 L2500.5 328 " style="stroke:#33322E;fill:none;stroke-dasharray:none;"></path>
<path d="M2505.8 289.8 L2500.5 289.8 L2495.2 289.8 L2500.5 276.5 Z" style="stroke:#33322E;fill:#eee8d5;stroke-dasharray:none;"></path>
<path d="M2214 121 L2214 148.5 L2214 168.5 L2214 168.5 " style="stroke:#33322E;fill:none;stroke-dasharray:6 6;"></path>
<path d="M2219.3 134.3 L2214 134.3 L2208.7 134.3 L2214 121 Z" style="stroke:#33322E;fill:#eee8d5;stroke-dasharray:none;"></path>
<path d="M2500.5 117.5 L2500.5 148.5 L2500.5 168.5 L2500.5 168.5 " style="stroke:#33322E;fill:none;stroke-dasharray:none;"></path>
<path d="M2505.8 130.8 L2500.5 130.8 L2495.2 130.8 L2500.5 117.5 Z" style="stroke:#33322E;fill:#eee8d5;stroke-dasharray:none;"></path>
<path d="M656.5 106 L656.5 148.5 L656.5 187.5 L656.5 187.5 " style="stroke:#33322E;fill:none;stroke-dasharray:6 6;"></path>
<path d="M661.8 119.3 L656.5 119.3 L651.2 119.3 L656.5 106 Z" style="stroke:#33322E;fill:#eee8d5;stroke-dasharray:none;"></path>
<rect x="567.5" y="187.5" height="70" width="178" style="stroke:#33322E;fill:#eee8d5;stroke-dasharray:none;"></rect>
<a id="src/domain/adapters/FileXmlMetadataLoaderAdapter.ts.FileXmlMetadataLoaderAdapter" xlink:href="src/domain/adapters/FileXmlMetadataLoaderAdapter.ts"><text x="656.5" y="209" style="fill: #33322E;text-anchor: middle;">FileXmlMetadataLoaderAdapter</text></a>
<path d="M567.5 218.5 L745.5 218.5" style="stroke:#33322E;fill:none;stroke-dasharray:none;"></path>
<path d="M567.5 226.5 L745.5 226.5" style="stroke:#33322E;fill:none;stroke-dasharray:none;"></path>
<text x="575.5" y="248" style="fill: #33322E;font-weight:normal;">+load(): string</text>
<rect x="1469.5" y="316.5" height="70" width="206" style="stroke:#33322E;fill:#eee8d5;stroke-dasharray:none;"></rect>
<a id="src/domain/adapters/FileValidatorAdapter.ts.FileValidatorAdapter" xlink:href="src/domain/adapters/FileValidatorAdapter.ts"><text x="1572.5" y="338" style="fill: #33322E;text-anchor: middle;">FileValidatorAdapter</text></a>
<path d="M1469.5 347.5 L1675.5 347.5" style="stroke:#33322E;fill:none;stroke-dasharray:none;"></path>
<path d="M1469.5 355.5 L1675.5 355.5" style="stroke:#33322E;fill:none;stroke-dasharray:none;"></path>
<text x="1477.5" y="377" style="fill: #33322E;font-weight:normal;">+isValid(): boolean</text>
<rect x="13.5" y="47.5" height="47" width="216" style="stroke:#33322E;fill:#eee8d5;stroke-dasharray:none;"></rect>
<a id="src/domain/errors/InvalidPathOrUrlError.ts.InvalidPathOrUrlError" xlink:href="src/domain/errors/InvalidPathOrUrlError.ts"><text x="121.5" y="69" style="fill: #33322E;text-anchor: middle;">InvalidPathOrUrlError</text></a>
<path d="M13.5 78.5 L229.5 78.5" style="stroke:#33322E;fill:none;stroke-dasharray:none;"></path>
<path d="M13.5 86.5 L229.5 86.5" style="stroke:#33322E;fill:none;stroke-dasharray:none;"></path>
<rect x="269.5" y="47.5" height="47" width="168" style="stroke:#33322E;fill:lightblue;stroke-dasharray:none;"></rect>
<a id="src/domain/helpers/deeplyEqual.ts.comparableObject" xlink:href="src/domain/helpers/deeplyEqual.ts"><text x="353.5" y="69" style="fill: #33322E;font-weight:normal;text-anchor: middle;">comparableObject</text></a>
<path d="M269.5 78.5 L437.5 78.5" style="stroke:#33322E;fill:none;stroke-dasharray:none;"></path>
<path d="M269.5 86.5 L437.5 86.5" style="stroke:#33322E;fill:none;stroke-dasharray:none;"></path>
<rect x="1129.5" y="187.5" height="70" width="197" style="stroke:#33322E;fill:#eee8d5;stroke-dasharray:none;"></rect>
<a id="src/domain/protocols/BaseFileValidator.ts.BaseFileValidator" xlink:href="src/domain/protocols/BaseFileValidator.ts"><text x="1228" y="209" style="fill: #33322E;text-anchor: middle;">BaseFileValidator</text></a>
<path d="M1129.5 218.5 L1326.5 218.5" style="stroke:#33322E;fill:none;stroke-dasharray:none;"></path>
<path d="M1129.5 226.5 L1326.5 226.5" style="stroke:#33322E;fill:none;stroke-dasharray:none;"></path>
<text x="1137.5" y="248" style="fill: #33322E;font-weight:normal;">+isValid(): boolean</text>
<rect x="1416.5" y="36.5" height="70" width="311" style="stroke:#33322E;fill:lightblue;stroke-dasharray:none;"></rect>
<a id="src/domain/protocols/IValidator.ts.IValidator" xlink:href="src/domain/protocols/IValidator.ts"><text x="1572" y="58" style="fill: #33322E;font-weight:normal;text-anchor: middle;">IValidator</text></a>
<path d="M1416.5 67.5 L1727.5 67.5" style="stroke:#33322E;fill:none;stroke-dasharray:none;"></path>
<text x="1424.5" y="89" style="fill: #33322E;font-weight:normal;">+isValid: (arg: any) =&gt; boolean</text>
<path d="M1416.5 98.5 L1727.5 98.5" style="stroke:#33322E;fill:none;stroke-dasharray:none;"></path>
<rect x="2089.5" y="168.5" height="108" width="249" style="stroke:#33322E;fill:#eee8d5;stroke-dasharray:none;"></rect>
<a id="src/domain/services/XmlMetadataLoadService.ts.XmlMetadataLoadService" xlink:href="src/domain/services/XmlMetadataLoadService.ts"><text x="2214" y="190" style="fill: #33322E;text-anchor: middle;">XmlMetadataLoadService</text></a>
<path d="M2089.5 199.5 L2338.5 199.5" style="stroke:#33322E;fill:none;stroke-dasharray:none;"></path>
<text x="2097.5" y="221" style="fill: #33322E;font-weight:normal;">+urlOrPath: string</text>
<text x="2097.5" y="236" style="fill: #33322E;font-weight:normal;">+loader: IXmlMetadataLoaderRepository</text>
<path d="M2089.5 245.5 L2338.5 245.5" style="stroke:#33322E;fill:none;stroke-dasharray:none;"></path>
<text x="2097.5" y="267" style="fill: #33322E;font-weight:normal;">+load(): string</text>
<rect x="2419.5" y="328.5" height="47" width="163" style="stroke:#33322E;fill:#eee8d5;stroke-dasharray:none;"></rect>
<a id="src/domain/value-objects/FileIdpMetadata.ts.FileIdpMetadata" xlink:href="src/domain/value-objects/FileIdpMetadata.ts"><text x="2501" y="350" style="fill: #33322E;text-anchor: middle;">FileIdpMetadata</text></a>
<path d="M2419.5 359.5 L2582.5 359.5" style="stroke:#33322E;fill:none;stroke-dasharray:none;"></path>
<path d="M2419.5 367.5 L2582.5 367.5" style="stroke:#33322E;fill:none;stroke-dasharray:none;"></path>
<rect x="875.5" y="13.5" height="115" width="501" style="stroke:#33322E;fill:lightblue;stroke-dasharray:none;"></rect>
<a id="src/domain/entities/protocols/ProviderProps.ts.ProviderProps" xlink:href="src/domain/entities/protocols/ProviderProps.ts"><text x="1126" y="35" style="fill: #33322E;font-weight:normal;text-anchor: middle;">ProviderProps</text></a>
<path d="M875.5 44.5 L1376.5 44.5" style="stroke:#33322E;fill:none;stroke-dasharray:none;"></path>
<text x="883.5" y="66" style="fill: #33322E;font-weight:normal;">+entrypoint: string</text>
<text x="883.5" y="81" style="fill: #33322E;font-weight:normal;">+cert: string | string[]</text>
<text x="883.5" y="96" style="fill: #33322E;font-weight:normal;">+providerName: string</text>
<text x="883.5" y="111" style="fill: #33322E;font-weight:normal;">+authnRequestBinding: &quot;HTTP-POST&quot; | &quot;HTTP-Redirect&quot;</text>
<path d="M875.5 120.5 L1376.5 120.5" style="stroke:#33322E;fill:none;stroke-dasharray:none;"></path>
<rect x="2089.5" y="21.5" height="100" width="249" style="stroke:#33322E;fill:lightblue;stroke-dasharray:none;"></rect>
<a id="src/domain/services/protocols/IXmlMetadataLoadService.ts.IXmlMetadataLoadService" xlink:href="src/domain/services/protocols/IXmlMetadataLoadService.ts"><text x="2214" y="43" style="fill: #33322E;font-weight:normal;text-anchor: middle;">IXmlMetadataLoadService</text></a>
<path d="M2089.5 52.5 L2338.5 52.5" style="stroke:#33322E;fill:none;stroke-dasharray:none;"></path>
<text x="2097.5" y="74" style="fill: #33322E;font-weight:normal;">+urlOrPath: string</text>
<text x="2097.5" y="89" style="fill: #33322E;font-weight:normal;">+loader: IXmlMetadataLoaderRepository</text>
<text x="2097.5" y="104" style="fill: #33322E;font-weight:normal;">+load: () =&gt; string</text>
<path d="M2089.5 113.5 L2338.5 113.5" style="stroke:#33322E;fill:none;stroke-dasharray:none;"></path>
<rect x="2378.5" y="168.5" height="108" width="244" style="stroke:#33322E;fill:#eee8d5;stroke-dasharray:none;"></rect>
<a id="src/domain/value-objectsIdpMetadata.ts.IdpMetadata" xlink:href="src/domain/value-objectsIdpMetadata.ts"><text x="2500.5" y="190" style="fill: #33322E;text-anchor: middle;">IdpMetadata</text></a>
<path d="M2378.5 199.5 L2622.5 199.5" style="stroke:#33322E;fill:none;stroke-dasharray:none;"></path>
<text x="2386.5" y="221" style="fill: #33322E;font-weight:normal;">-urlOrPathValidator: any</text>
<text x="2386.5" y="236" style="fill: #33322E;font-weight:normal;">-loadService: any</text>
<path d="M2378.5 245.5 L2622.5 245.5" style="stroke:#33322E;fill:none;stroke-dasharray:none;"></path>
<text x="2386.5" y="267" style="fill: #33322E;font-weight:normal;">+load(): void</text>
<rect x="1767.5" y="21.5" height="100" width="282" style="stroke:#33322E;fill:lightblue;stroke-dasharray:none;"></rect>
<a id="src/domain/value-objectsIdpMetadata.ts.IdpMetadataProps" xlink:href="src/domain/value-objectsIdpMetadata.ts"><text x="1908.5" y="43" style="fill: #33322E;font-weight:normal;text-anchor: middle;">IdpMetadataProps</text></a>
<path d="M1767.5 52.5 L2049.5 52.5" style="stroke:#33322E;fill:none;stroke-dasharray:none;"></path>
<text x="1775.5" y="74" style="fill: #33322E;font-weight:normal;">+source: &quot;file&quot; | &quot;url&quot;</text>
<text x="1775.5" y="89" style="fill: #33322E;font-weight:normal;">+urlOrPath: string</text>
<text x="1775.5" y="104" style="fill: #33322E;font-weight:normal;">+data: ProviderProps | undefined</text>
<path d="M1767.5 113.5 L2049.5 113.5" style="stroke:#33322E;fill:none;stroke-dasharray:none;"></path>
<rect x="477.5" y="36.5" height="70" width="358" style="stroke:#33322E;fill:lightblue;stroke-dasharray:none;"></rect>
<a id="src/domain/value-objects/protocols/IXmlMetadataLoaderRepository.ts.IXmlMetadataLoaderRepository" xlink:href="src/domain/value-objects/protocols/IXmlMetadataLoaderRepository.ts"><text x="656.5" y="58" style="fill: #33322E;font-weight:normal;text-anchor: middle;">IXmlMetadataLoaderRepository</text></a>
<path d="M477.5 67.5 L835.5 67.5" style="stroke:#33322E;fill:none;stroke-dasharray:none;"></path>
<text x="485.5" y="89" style="fill: #33322E;font-weight:normal;">+load: (urlOrPath: string) =&gt; string</text>
<path d="M477.5 98.5 L835.5 98.5" style="stroke:#33322E;fill:none;stroke-dasharray:none;"></path>
<rect x="2411.5" y="24.5" height="93" width="178" style="stroke:#33322E;fill:#eee8d5;stroke-dasharray:none;"></rect>
<a id="src/domain/value-objects/protocols/ValueObject.ts.ValueObject&lt;T&gt;" xlink:href="src/domain/value-objects/protocols/ValueObject.ts"><text x="2500.5" y="46" style="fill: #33322E;text-anchor: middle;">ValueObject&lt;T&gt;</text></a>
<path d="M2411.5 55.5 L2589.5 55.5" style="stroke:#33322E;fill:none;stroke-dasharray:none;"></path>
<text x="2419.5" y="77" style="fill: #33322E;font-weight:normal;">+props: T</text>
<path d="M2411.5 86.5 L2589.5 86.5" style="stroke:#33322E;fill:none;stroke-dasharray:none;"></path>
<text x="2419.5" y="108" style="fill: #33322E;font-weight:normal;">+equal(): boolean</text>
<rect x="2629.5" y="47.5" height="47" width="168" style="stroke:#33322E;fill:lightblue;stroke-dasharray:none;"></rect>
<a id="src/domain/value-objects/protocols/ValueObject.ts.ValueObjectProps" xlink:href="src/domain/value-objects/protocols/ValueObject.ts"><text x="2713.5" y="69" style="fill: #33322E;font-weight:normal;text-anchor: middle;">ValueObjectProps</text></a>
<path d="M2629.5 78.5 L2797.5 78.5" style="stroke:#33322E;fill:none;stroke-dasharray:none;"></path>
<path d="M2629.5 86.5 L2797.5 86.5" style="stroke:#33322E;fill:none;stroke-dasharray:none;"></path>
</svg>